<svg preserveAspectRatio="none" width="100%" height="100%" overflow="visible" style="display: block;" viewBox="0 0 15.7135 17.8131" fill="none" xmlns="http://www.w3.org/2000/svg">
<path id="Star 1" d="M6.8599 0.920594C6.95767 -0.306864 8.7558 -0.306864 8.85358 0.920594L9.17644 4.97361C9.23207 5.67209 9.97021 6.09825 10.6029 5.79719L14.2744 4.05029C15.3863 3.52123 16.2853 5.07846 15.2712 5.77687L11.9226 8.08298C11.3455 8.4804 11.3455 9.33273 11.9226 9.73015L15.2712 12.0363C16.2853 12.7347 15.3863 14.2919 14.2744 13.7628L10.6029 12.0159C9.97021 11.7149 9.23207 12.141 9.17644 12.8395L8.85358 16.8925C8.7558 18.12 6.95767 18.12 6.8599 16.8925L6.53704 12.8395C6.4814 12.141 5.74327 11.7149 5.11055 12.0159L1.4391 13.7628C0.327201 14.2919 -0.571863 12.7347 0.442258 12.0363L3.79085 9.73015C4.36793 9.33273 4.36793 8.4804 3.79085 8.08298L0.442257 5.77687C-0.571864 5.07846 0.327201 3.52123 1.4391 4.05029L5.11055 5.7972C5.74327 6.09825 6.4814 5.67209 6.53704 4.97361L6.8599 0.920594Z" fill="var(--fill-0, white)"/>
</svg>
