<svg width="241" height="65" viewBox="0 0 241 65" fill="none" xmlns="http://www.w3.org/2000/svg">
<g clip-path="url(#clip0_970_432)">
<path d="M78.6201 19.4684V24.3371H75.3344V7.80566H82.997C86.3315 7.80566 89.0259 9.91398 89.0259 13.6614C89.0259 17.2017 86.3376 19.4684 82.997 19.4684H78.6262H78.6201ZM78.6201 10.6513V16.6289H82.613C84.3564 16.6289 85.6305 15.4224 85.6305 13.6614C85.6305 11.7359 84.3259 10.6574 82.613 10.6574H78.6201V10.6513Z" fill="black"/>
<path d="M98.5237 19.4684H94.7016V24.3371H91.4158V7.80566H99.0906C102.425 7.80566 105.132 9.92617 105.132 13.6492C105.132 16.05 103.791 17.9329 101.907 18.8469L106.29 24.3249H102.321L98.5359 19.4684H98.5237ZM94.7016 10.6513V16.6289H98.7066C100.462 16.6289 101.736 15.4224 101.736 13.6614C101.736 11.7359 100.432 10.6574 98.7066 10.6574H94.7016V10.6513Z" fill="black"/>
<path d="M111.831 24.3371H108.546V7.80566H111.831V24.3371Z" fill="black"/>
<path d="M124.212 19.2856L118.646 13.0521V24.3371H115.36V7.80566H118.207L124.468 15.2091L130.704 7.80566H133.539V24.3371H130.265V13.0399L124.736 19.2856H124.212Z" fill="black"/>
<path d="M149.503 24.3371H137.068V7.80566H149.321V10.6513H140.36V14.4597H148.205V17.3053H140.36V21.4914H149.503V24.3249V24.3371Z" fill="black"/>
<path d="M78.6201 40.7526V45.6212H75.3344V29.0898H82.997C86.3315 29.0898 89.0259 31.1982 89.0259 34.9456C89.0259 38.4859 86.3376 40.7526 82.997 40.7526H78.6262H78.6201ZM78.6201 31.9416V37.9192H82.613C84.3564 37.9192 85.6305 36.7127 85.6305 34.9517C85.6305 33.0262 84.3259 31.9476 82.613 31.9476H78.6201V31.9416Z" fill="black"/>
<path d="M98.5237 40.7526H94.7016V45.6212H91.4158V29.0898H99.0906C102.425 29.0898 105.132 31.2103 105.132 34.9334C105.132 37.3342 103.791 39.2171 101.907 40.1311L106.29 45.6091H102.321L98.5359 40.7526H98.5237ZM94.7016 31.9416V37.9192H98.7066C100.462 37.9192 101.736 36.7127 101.736 34.9517C101.736 33.0262 100.432 31.9476 98.7066 31.9476H94.7016V31.9416Z" fill="black"/>
<path d="M116.262 28.8525C121.377 28.8525 125.016 32.405 125.016 37.3955C125.016 42.386 121.377 45.8653 116.262 45.8653C111.148 45.8653 107.521 42.386 107.521 37.3955C107.521 32.405 111.172 28.8525 116.262 28.8525ZM116.275 42.8125C119.487 42.8125 121.645 40.6189 121.645 37.3833C121.645 34.1477 119.487 31.9175 116.275 31.9175C113.062 31.9175 110.904 34.1721 110.904 37.3833C110.904 40.5945 113.086 42.8125 116.275 42.8125Z" fill="black"/>
<path d="M136.55 40.5698L130.984 34.3363V45.6212H127.699V29.0898H130.545L136.806 36.4933L143.042 29.0898H145.877V45.6212H142.603V34.3241L137.074 40.5698H136.55Z" fill="black"/>
<path d="M161.836 45.6212H149.4V29.0898H161.653V31.9355H152.692V35.7438H160.537V38.5895H152.692V42.7756H161.836V45.6091V45.6212Z" fill="black"/>
<path d="M167.786 45.6212H164.5V29.0898H167.481L176.991 40.4358V29.0898H180.276V45.6212H177.247L167.786 34.3972V45.6212Z" fill="black"/>
<path d="M194.608 42.3856H186.933L185.702 45.6212H182.197L188.872 29.0898H192.645L199.333 45.6212H195.827L194.608 42.3856ZM187.86 39.7716H193.657L190.774 32.5265L187.866 39.7716H187.86Z" fill="black"/>
<path d="M208.361 29.0959C213.695 29.0959 216.712 32.2584 216.712 37.3464C216.712 42.4344 213.634 45.6212 208.361 45.6212H201.235V29.0898H208.361V29.0959ZM213.347 37.3464C213.347 33.8914 211.713 31.9294 208.013 31.9294H204.532V42.7878H208.013C211.75 42.7878 213.347 40.777 213.347 37.3464Z" fill="black"/>
<path d="M231.872 45.6212H219.437V29.0898H231.69V31.9355H222.729V35.7438H230.574V38.5895H222.729V42.7756H231.872V45.6091V45.6212Z" fill="black"/>
<path d="M80.1926 52.7867L78.0651 61.4454H76.7179L74.1819 51.2207H75.1817L77.4128 60.4096L79.6561 51.2207H80.729L82.9845 60.3486L85.1973 51.2207H86.1788L83.6429 61.4454H82.3383L80.1987 52.7867H80.1926Z" fill="black"/>
<path d="M91.8602 61.4459V60.5258C91.0372 61.318 90.2752 61.5983 89.4096 61.5983C88.2209 61.5983 87.2578 60.995 87.2578 59.5204C87.2578 57.9666 88.1234 57.278 89.6474 57.278H91.8175V56.2361C91.8175 55.2368 91.3603 54.7432 90.2631 54.7432C89.3548 54.7432 88.4891 54.9199 87.6967 55.1515V54.274C88.5745 54.0425 89.5559 53.8779 90.2631 53.8779C92.0065 53.8779 92.799 54.5543 92.799 56.1203V61.452H91.8602V61.4459ZM91.8175 59.6484V58.0824H89.8242C88.7391 58.0824 88.2087 58.4175 88.2087 59.4473C88.2087 60.4771 88.7817 60.7818 89.5437 60.7818C90.3667 60.7818 91.0555 60.3735 91.8175 59.6545V59.6484Z" fill="black"/>
<path d="M95.4263 50.9287H96.4261V60.0566C96.4261 60.5563 96.6455 60.7025 97.054 60.7025C97.2307 60.7025 97.4624 60.6721 97.6818 60.6172V61.4642C97.3466 61.5251 97.1271 61.5495 96.8467 61.5495C95.9262 61.5495 95.4263 61.2448 95.4263 60.1419V50.9287Z" fill="black"/>
<path d="M104.193 61.4457C103.473 60.1417 102.681 58.8255 101.846 57.6373L100.407 59.2521V61.4518H99.4257V50.9346H100.407V58.009L103.998 54.0239H105.125L102.529 56.9549C103.498 58.3441 104.437 59.8675 105.296 61.4518H104.181L104.193 61.4457Z" fill="black"/>
<path d="M110.216 51.9527C110.216 51.4714 110.423 51.2764 110.892 51.2764C111.392 51.2764 111.551 51.4653 111.551 51.9527C111.551 52.4097 111.392 52.5986 110.892 52.5986C110.423 52.5986 110.216 52.4097 110.216 51.9527ZM111.374 61.4462H110.392V54.0184H111.374V61.4462Z" fill="black"/>
<path d="M114.098 61.4462V54.0183H115.068V54.78C115.946 54.2072 116.854 53.8721 117.689 53.8721C119.14 53.8721 119.841 54.5911 119.841 56.1266V61.4462H118.859V56.1693C118.859 55.2004 118.39 54.78 117.482 54.78C116.72 54.78 115.958 55.0603 115.08 55.5417V61.4462H114.098Z" fill="black"/>
<path d="M129.552 54.8282H127.132V59.6176C127.132 60.5255 127.528 60.7449 128.217 60.7449C128.698 60.7449 129.04 60.7022 129.564 60.5864V61.4334C129.082 61.537 128.54 61.5918 128.083 61.5918C126.863 61.5918 126.15 61.1836 126.15 59.7455V54.8221H124.876V54.0177H126.168L126.357 52.0557H127.132V54.0177H129.552V54.8221V54.8282Z" fill="black"/>
<path d="M137.098 57.7414C137.098 60.392 136.056 61.5924 134.032 61.5924C132.008 61.5924 130.966 60.3737 130.966 57.7231C130.966 55.0725 132.008 53.8721 134.032 53.8721C136.056 53.8721 137.098 55.0907 137.098 57.7414ZM136.086 57.7414C136.086 55.6148 135.44 54.7069 134.032 54.7069C132.624 54.7069 131.978 55.6148 131.978 57.7231C131.978 59.8314 132.624 60.7576 134.032 60.7576C135.44 60.7576 136.086 59.8497 136.086 57.7414Z" fill="black"/>
<path d="M146.925 61.4459V60.5258C146.102 61.318 145.34 61.5983 144.475 61.5983C143.286 61.5983 142.323 60.995 142.323 59.5204C142.323 57.9666 143.188 57.278 144.712 57.278H146.883V56.2361C146.883 55.2368 146.425 54.7432 145.328 54.7432C144.42 54.7432 143.554 54.9199 142.762 55.1515V54.274C143.64 54.0425 144.621 53.8779 145.328 53.8779C147.072 53.8779 147.864 54.5543 147.864 56.1203V61.452H146.925V61.4459ZM146.876 59.6484V58.0824H144.883C143.798 58.0824 143.268 58.4175 143.268 59.4473C143.268 60.4771 143.841 60.7818 144.603 60.7818C145.426 60.7818 146.115 60.3735 146.876 59.6545V59.6484Z" fill="black"/>
<path d="M153.929 61.4462V54.0183H154.898V54.78C155.776 54.2072 156.685 53.8721 157.52 53.8721C158.971 53.8721 159.672 54.5911 159.672 56.1266V61.4462H158.69V56.1693C158.69 55.2004 158.221 54.78 157.312 54.78C156.55 54.78 155.788 55.0603 154.911 55.5417V61.4462H153.929Z" fill="black"/>
<path d="M161.964 57.729C161.964 55.121 163.019 53.8779 165.043 53.8779C166.877 53.8779 167.81 54.8894 167.81 57.0282C167.81 57.278 167.798 57.6863 167.78 57.9361H162.97C163.013 59.9591 163.72 60.7513 165.36 60.7513C166.048 60.7513 166.737 60.6355 167.438 60.4466V61.3241C166.78 61.5008 166.03 61.6044 165.286 61.6044C162.988 61.6044 161.958 60.4161 161.958 57.7351L161.964 57.729ZM162.988 57.1257H166.817V56.9673C166.817 55.3708 166.201 54.7127 165.03 54.7127C163.738 54.7127 163.11 55.4317 162.994 57.1318L162.988 57.1257Z" fill="black"/>
<path d="M177.149 61.4454H175.887L174.174 55.3338L172.443 61.4454H171.211L169.102 54.0176H170.084L171.845 60.4339L173.705 54.0176H174.643L176.503 60.3913L178.276 54.0176H179.258L177.149 61.4454Z" fill="black"/>
<path d="M184.494 50.9287H185.494V60.0566C185.494 60.5563 185.713 60.7025 186.122 60.7025C186.298 60.7025 186.53 60.6721 186.749 60.6172V61.4642C186.414 61.5251 186.195 61.5495 185.914 61.5495C184.994 61.5495 184.494 61.2448 184.494 60.1419V50.9287Z" fill="black"/>
<path d="M188.323 51.9527C188.323 51.4714 188.53 51.2764 189 51.2764C189.5 51.2764 189.658 51.4653 189.658 51.9527C189.658 52.4097 189.5 52.5986 189 52.5986C188.53 52.5986 188.323 52.4097 188.323 51.9527ZM189.481 61.4462H188.5V54.0184H189.481V61.4462Z" fill="black"/>
<path d="M192.413 61.4459V54.8224H191.151V54.0181H192.413V52.6836C192.413 51.4101 193.071 50.7764 194.345 50.7764C194.875 50.7764 195.314 50.8617 195.607 50.9348V51.7269C195.253 51.6416 194.802 51.5685 194.406 51.5685C193.613 51.5685 193.406 51.9219 193.406 52.7689V54.012H195.607V54.8163H193.406V61.4398H192.406L192.413 61.4459Z" fill="black"/>
<path d="M196.546 57.729C196.546 55.121 197.6 53.8779 199.624 53.8779C201.459 53.8779 202.392 54.8894 202.392 57.0282C202.392 57.278 202.379 57.6863 202.361 57.9361H197.551C197.594 59.9591 198.301 60.7513 199.941 60.7513C200.63 60.7513 201.319 60.6355 202.02 60.4466V61.3241C201.361 61.5008 200.612 61.6044 199.868 61.6044C197.57 61.6044 196.54 60.4161 196.54 57.7351L196.546 57.729ZM197.57 57.1257H201.398V56.9673C201.398 55.3708 200.782 54.7127 199.612 54.7127C198.32 54.7127 197.692 55.4317 197.576 57.1318L197.57 57.1257Z" fill="black"/>
<path d="M204.288 61.2268V60.3067C205.136 60.5992 205.873 60.7332 206.592 60.7332C207.665 60.7332 208.129 60.4408 208.129 59.6181C208.129 57.6683 204.227 58.7224 204.227 55.9987C204.227 54.6337 205.136 53.8721 206.751 53.8721C207.501 53.8721 208.159 53.9757 208.757 54.1524V55.0481C208.153 54.8592 207.391 54.7434 206.763 54.7434C205.721 54.7434 205.178 55.1273 205.178 55.9134C205.178 57.8328 209.08 56.7908 209.08 59.5328C209.08 60.9831 208.232 61.5985 206.532 61.5985C205.684 61.5985 204.977 61.4401 204.288 61.2329V61.2268Z" fill="black"/>
<path d="M214.84 54.8282H212.42V59.6176C212.42 60.5255 212.816 60.7449 213.505 60.7449C213.986 60.7449 214.328 60.7022 214.852 60.5864V61.4334C214.37 61.537 213.828 61.5918 213.371 61.5918C212.151 61.5918 211.438 61.1836 211.438 59.7455V54.8221H210.164V54.0177H211.456L211.645 52.0557H212.42V54.0177H214.84V54.8221V54.8282Z" fill="black"/>
<path d="M215.748 64.4685V63.5911C216.041 63.6642 216.364 63.7068 216.76 63.7068C217.522 63.7068 217.833 63.4143 218.211 62.3175L218.473 61.5559L215.791 54.0244H216.846L218.985 60.2823L221.082 54.0244H222.106L219.016 62.7441C218.473 64.2979 217.772 64.6208 216.711 64.6208C216.388 64.6208 216.053 64.5599 215.742 64.4746L215.748 64.4685Z" fill="black"/>
<path d="M223.564 50.9287H224.563V60.0566C224.563 60.5563 224.783 60.7025 225.191 60.7025C225.368 60.7025 225.6 60.6721 225.819 60.6172V61.4642C225.484 61.5251 225.264 61.5495 224.984 61.5495C224.064 61.5495 223.564 61.2448 223.564 60.1419V50.9287Z" fill="black"/>
<path d="M227.154 57.729C227.154 55.121 228.208 53.8779 230.232 53.8779C232.067 53.8779 233 54.8894 233 57.0282C233 57.278 232.988 57.6863 232.969 57.9361H228.16C228.202 59.9591 228.91 60.7513 230.549 60.7513C231.238 60.7513 231.927 60.6355 232.628 60.4466V61.3241C231.97 61.5008 231.22 61.6044 230.476 61.6044C228.178 61.6044 227.148 60.4161 227.148 57.7351L227.154 57.729ZM228.178 57.1257H232.006V56.9673C232.006 55.3708 231.391 54.7127 230.22 54.7127C228.928 54.7127 228.3 55.4317 228.184 57.1318L228.178 57.1257Z" fill="black"/>
<path d="M57.1313 40.5089C57.241 40.576 57.43 40.6978 57.6068 40.905C57.6799 40.9903 57.8323 41.1731 57.8994 41.423C57.9664 41.6545 57.9238 41.8251 57.8872 41.9714C57.8384 42.1663 57.7531 42.3065 57.6921 42.3979C54.6685 46.383 51.6449 50.362 48.6274 54.3471C49.8283 56.364 51.0232 58.3809 52.2241 60.3978C52.2241 60.3978 52.2241 60.3978 52.2241 60.4039C51.7547 61.4459 51.2792 62.4878 50.8098 63.5359C47.2376 57.5156 43.6592 51.4953 40.087 45.469L42.8485 44.622C42.8485 44.622 42.8668 44.622 42.879 44.6281C42.879 44.6281 42.8972 44.6342 42.9094 44.6403C44.1713 46.7791 45.4393 48.9178 46.7011 51.0627C46.7011 51.0688 46.7072 51.0749 46.7133 51.0871C48.5055 48.7168 50.2977 46.3464 52.0899 43.9761C52.474 43.4703 52.858 42.9707 53.2421 42.4649L35.8625 38.3702C35.5333 37.8339 35.2041 37.2916 34.875 36.731C34.5336 36.1522 34.2044 35.5794 33.8874 35.0127L57.1557 40.4968L57.1313 40.5089Z" fill="#CF3685"/>
<path d="M43.1106 57.2967C43.1289 57.4247 43.1472 57.6502 43.0923 57.9122C43.0679 58.0218 43.0192 58.2534 42.8668 58.4667C42.7266 58.6617 42.5681 58.7348 42.4279 58.8018C42.245 58.8871 42.0804 58.9054 41.9707 58.9115C36.972 59.0334 31.9672 59.1491 26.9685 59.271C26.1395 61.4646 25.3043 63.6582 24.4753 65.8519C24.4753 65.8519 24.4753 65.8519 24.4692 65.8519C23.3597 66.1322 22.2502 66.4125 21.1408 66.6989C23.6218 60.1545 26.109 53.6041 28.59 47.0598L30.9736 48.6929C30.9736 48.6929 30.9797 48.7111 30.9857 48.7233C30.9857 48.7233 30.9918 48.7416 30.9979 48.7538C30.114 51.0754 29.224 53.397 28.3401 55.7185C28.3401 55.7307 28.334 55.7368 28.3279 55.7429C31.2966 55.6637 34.2654 55.5906 37.2402 55.5114L39.136 55.4687L31.5039 39.3273C31.9489 38.133 32.3939 36.9326 32.8389 35.7383C36.2648 42.9224 39.6908 50.1126 43.1106 57.2967Z" fill="#782C8B"/>
<path d="M52.7605 18.9872C52.8763 18.9445 53.0958 18.8714 53.364 18.8653C53.4737 18.8653 53.7115 18.8592 53.9553 18.9628C54.1809 19.0603 54.2845 19.1943 54.3759 19.3162C54.4978 19.4746 54.5527 19.627 54.5832 19.7367C55.7963 24.587 57.0155 29.4374 58.2286 34.2877C60.5511 34.6167 62.8737 34.9458 65.2023 35.2748C65.2023 35.2748 65.2023 35.2748 65.2023 35.2809C65.7205 36.3046 66.2387 37.3222 66.7568 38.3459L45.9513 35.3967L47.0181 32.7156C47.0181 32.7156 47.0364 32.7034 47.0425 32.6973C47.0425 32.6973 47.0608 32.6851 47.0669 32.679C49.5296 33.0325 51.9863 33.3859 54.4491 33.7393C54.4613 33.7393 54.4674 33.7393 54.4735 33.7393C53.748 30.8571 53.0165 27.981 52.2911 25.0988C52.1387 24.4834 51.9863 23.868 51.8339 23.2586L37.7584 34.245C37.1366 34.1658 36.5026 34.0805 35.8564 33.9891C35.192 33.8916 34.5397 33.7941 33.8996 33.6845L52.7422 18.975L52.7605 18.9872Z" fill="#EC6824"/>
<path d="M32.9121 8.94507C32.9486 8.82321 33.034 8.60994 33.1986 8.39667C33.2656 8.30527 33.4119 8.12246 33.6436 7.9945C33.8569 7.87873 34.0276 7.88482 34.1861 7.88482C34.3873 7.88482 34.5458 7.93966 34.6433 7.98232C39.197 10.0541 43.7507 12.1197 48.3043 14.1915C50.0112 12.5767 51.712 10.9681 53.4189 9.35333C53.4189 9.35333 53.4189 9.35333 53.4249 9.35333C54.5466 9.58488 55.6683 9.81643 56.7899 10.0419C51.6998 14.8557 46.6158 19.6695 41.5256 24.4771L40.0931 21.9728C40.0931 21.9728 40.0931 21.9545 40.0931 21.9423C40.0931 21.9423 40.0931 21.924 40.0931 21.9118C41.9036 20.2057 43.7141 18.5056 45.5246 16.7995C45.5307 16.7934 45.5368 16.7873 45.5429 16.7812C42.8363 15.5564 40.1297 14.3316 37.4231 13.1069C36.8439 12.8448 36.2709 12.5828 35.6918 12.3208L35.5272 30.1684C35.0761 30.6071 34.6189 31.0519 34.1434 31.4967C33.6558 31.9598 33.1681 32.4047 32.6865 32.8373L32.906 8.93898L32.9121 8.94507Z" fill="#FFD111"/>
<path d="M13.3136 17.9573C13.2465 17.8537 13.1307 17.6587 13.0636 17.3906C13.0393 17.2809 12.9783 17.0493 13.0271 16.7934C13.0697 16.5558 13.1795 16.4217 13.2831 16.3059C13.4111 16.1536 13.5513 16.0622 13.6489 16.0074C18.105 13.7406 22.5672 11.48 27.0234 9.21322C26.8283 6.87336 26.6271 4.53958 26.4321 2.19972C27.3099 1.46851 28.1938 0.737302 29.0716 0C29.6568 6.97694 30.242 13.9539 30.8273 20.9308L27.9743 20.486C27.9743 20.486 27.9622 20.4738 27.95 20.4616C27.95 20.4616 27.9378 20.4434 27.9317 20.4373C27.7305 17.9633 27.5232 15.4833 27.3221 13.0033C27.3221 12.9911 27.3221 12.985 27.3221 12.9789L19.3851 17.0311C18.8182 17.3174 18.2574 17.6038 17.6905 17.8902L31.5405 29.1569C31.6014 29.7845 31.6624 30.4183 31.7173 31.0642C31.7721 31.7344 31.8209 32.3925 31.8575 33.0384L13.3136 17.9512V17.9573Z" fill="#6CBE46"/>
<path d="M7.77843 39.3267C7.65041 39.3145 7.42486 39.284 7.18103 39.1744C7.07739 39.1317 6.86404 39.0281 6.69335 38.8331C6.53485 38.6503 6.49828 38.4797 6.4678 38.3274C6.42513 38.1324 6.44341 37.9679 6.4678 37.8582C7.47973 32.9591 8.48556 28.0661 9.49749 23.167C7.54678 21.863 5.59608 20.559 3.64537 19.255C3.64537 19.255 3.64537 19.255 3.64537 19.2489L3.57222 15.8184C9.39386 19.712 15.2155 23.6057 21.0371 27.4994L18.9096 29.4493C18.9096 29.4493 18.8914 29.4493 18.8792 29.4493C18.8792 29.4493 18.8609 29.4493 18.8487 29.4493C16.7883 28.0661 14.7217 26.6768 12.6552 25.2875C12.6491 25.2875 12.643 25.2753 12.6308 25.2753C12.0334 28.188 11.4421 31.0945 10.8447 34.0072C10.7167 34.6287 10.5887 35.2441 10.4606 35.8656L27.9134 32.0695C28.4437 32.4107 28.9741 32.758 29.5105 33.1236C30.0652 33.5014 30.6139 33.8731 31.1442 34.2448L7.78453 39.3267H7.77843Z" fill="#396FB5"/>
<path d="M20.9762 56.7963C20.8908 56.8877 20.7202 57.04 20.4824 57.168C20.3849 57.2167 20.1715 57.3264 19.9094 57.3325C19.6656 57.3447 19.5132 57.2655 19.3729 57.1923C19.1962 57.1009 19.0742 56.9852 19.0072 56.8999C15.819 53.0488 12.6308 49.1917 9.44873 45.3407C7.21151 46.0475 4.9682 46.7483 2.73099 47.4551C2.73099 47.4551 2.73099 47.4551 2.72489 47.4551C1.81659 46.7543 0.908297 46.0597 0 45.359C6.68117 43.2628 13.3623 41.1606 20.0496 39.0645L20.2386 41.9406C20.2386 41.9406 20.2264 41.9588 20.2203 41.971C20.2203 41.971 20.2081 41.9893 20.2081 41.9954C17.8368 42.7327 15.4593 43.4761 13.088 44.2134C13.0758 44.2134 13.0697 44.2134 13.0636 44.2195C14.9595 46.5045 16.8553 48.7895 18.7573 51.0746C19.1596 51.562 19.5619 52.0495 19.9643 52.537L27.9317 36.5601C28.5291 36.359 29.1326 36.164 29.7544 35.9751C30.3944 35.774 31.0284 35.5851 31.6502 35.4023L20.9823 56.7902L20.9762 56.7963Z" fill="#604B9E"/>
</g>
<defs>
<clipPath id="clip0_970_432">
<rect width="241" height="65" fill="white"/>
</clipPath>
</defs>
</svg>
